<svg xmlns:mydata="http://www.w3.org/2000/svg" mydata:contrastcolor="ffffff" mydata:template="Default" mydata:presentation="2.5" mydata:layoutType="undefined" mydata:specialFontId="undefined" mydata:id1="234" mydata:id2="125" mydata:companyName="Eduardo Augusto" mydata:companyTagline="Apaixonado por linguagem" version="1.1" xmlns="http://www.w3.org/2000/svg" xmlns:xlink="http://www.w3.org/1999/xlink" width="550" height="940"><g fill="none" fill-rule="none" stroke="none" stroke-width="1" stroke-linecap="butt" stroke-linejoin="miter" stroke-miterlimit="10" stroke-dasharray="" stroke-dashoffset="0" font-family="none" font-weight="none" font-size="none" text-anchor="none" style="mix-blend-mode: normal"><g data-paper-data="{&quot;isGlobalGroup&quot;:true,&quot;bounds&quot;:{&quot;x&quot;:65,&quot;y&quot;:195.50327535970754,&quot;width&quot;:420,&quot;height&quot;:78.99353911059396}}"><g data-paper-data="{&quot;isSecondaryText&quot;:true}" fill="#101820" fill-rule="nonzero"><path d="M159.28987,257.54763h-0.01078l-0.91625,2.84575h1.82171zM161.06846,263.09901l-0.45273,-1.47677h-2.64094l-0.50663,1.47677h-1.58457l2.55471,-7.1575h1.73548l2.52237,7.1575z" data-paper-data="{&quot;glyphName&quot;:&quot;A&quot;,&quot;glyphIndex&quot;:0,&quot;firstGlyphOfWord&quot;:true,&quot;word&quot;:1}"></path><path d="M174.85626,259.28311c0.43117,0 0.74198,-0.09881 0.93241,-0.29643c0.19044,-0.19762 0.28565,-0.45453 0.28565,-0.77072c0,-0.30182 -0.09522,-0.54975 -0.28565,-0.74378c-0.19044,-0.19403 -0.50124,-0.29104 -0.93241,-0.29104h-1.42288v2.10198zM171.93505,263.09901v-7.1575h3.15835c0.35213,0 0.66832,0.05929 0.94858,0.17786c0.28026,0.11857 0.521,0.28386 0.72222,0.49585c0.20121,0.21199 0.35572,0.45812 0.46351,0.73839c0.10779,0.28026 0.16169,0.58209 0.16169,0.90547c0,0.32338 -0.0539,0.62341 -0.16169,0.90008c-0.10779,0.27667 -0.2623,0.51382 -0.46351,0.71144c-0.20121,0.19762 -0.44195,0.35213 -0.72222,0.46351c-0.28026,0.11139 -0.59646,0.16708 -0.94858,0.16708h-1.66002v2.59783z" data-paper-data="{&quot;glyphName&quot;:&quot;P&quot;,&quot;glyphIndex&quot;:1,&quot;word&quot;:1}"></path><path d="M187.29819,257.54763h-0.01078l-0.91625,2.84575h1.82171zM189.07678,263.09901l-0.45273,-1.47677h-2.64094l-0.50663,1.47677h-1.58457l2.55471,-7.1575h1.73548l2.52237,7.1575z" data-paper-data="{&quot;glyphName&quot;:&quot;A&quot;,&quot;glyphIndex&quot;:2,&quot;word&quot;:1}"></path><path d="M198.40998,263.09901v-7.1575h1.49833v7.1575z" data-paper-data="{&quot;glyphName&quot;:&quot;I&quot;,&quot;glyphIndex&quot;:3,&quot;word&quot;:1}"></path><path d="M212.00637,263.09901l-1.36898,-2.45769l-1.44443,2.45769h-1.74626l2.31756,-3.6542l-2.18821,-3.50329h1.76782l1.29352,2.31756l1.3043,-2.31756h1.73548l-2.17743,3.43862l2.32834,3.71888z" data-paper-data="{&quot;glyphName&quot;:&quot;X&quot;,&quot;glyphIndex&quot;:4,&quot;word&quot;:1}"></path><path d="M225.27424,262.06419c0.26589,0 0.51741,-0.04851 0.75456,-0.14552c0.23715,-0.09701 0.44375,-0.24433 0.61981,-0.44195c0.17606,-0.19762 0.3144,-0.45094 0.41501,-0.75995c0.10061,-0.30901 0.15091,-0.67551 0.15091,-1.0995c0,-0.84798 -0.16528,-1.49115 -0.49585,-1.92951c-0.33057,-0.43836 -0.81205,-0.65754 -1.44443,-0.65754c-0.63239,0 -1.11746,0.21918 -1.45521,0.65754c-0.33775,0.43836 -0.50663,1.08153 -0.50663,1.92951c0,0.84798 0.17067,1.46779 0.51202,1.85944c0.34135,0.39165 0.82462,0.58748 1.44982,0.58748zM225.27424,263.34693c-1.10668,0 -1.95645,-0.32338 -2.54932,-0.97014c-0.59287,-0.64676 -0.8893,-1.57738 -0.8893,-2.79186c0,-0.60364 0.07546,-1.14621 0.22637,-1.62768c0.15091,-0.48148 0.37368,-0.8893 0.66832,-1.22346c0.29464,-0.33416 0.65395,-0.58927 1.07794,-0.76533c0.42399,-0.17606 0.91265,-0.26409 1.46599,-0.26409c0.54615,0 1.03302,0.08803 1.4606,0.26409c0.42758,0.17606 0.7851,0.43297 1.07255,0.77072c0.28745,0.33775 0.50663,0.74917 0.65754,1.23424c0.15091,0.48507 0.22637,1.03302 0.22637,1.64385c0,1.23603 -0.29284,2.16665 -0.87852,2.79186c-0.58568,0.6252 -1.43186,0.9378 -2.53854,0.9378z" data-paper-data="{&quot;glyphName&quot;:&quot;O&quot;,&quot;glyphIndex&quot;:5,&quot;word&quot;:1}"></path><path d="M242.77466,263.09901l-3.06134,-4.8076v4.8076h-1.39054v-7.1575h1.58457l2.84575,4.60279v-4.60279h1.40132v7.1575z" data-paper-data="{&quot;glyphName&quot;:&quot;N&quot;,&quot;glyphIndex&quot;:6,&quot;word&quot;:1}"></path><path d="M256.9267,257.54763h-0.01078l-0.91625,2.84575h1.82171zM258.7053,263.09901l-0.45273,-1.47677h-2.64094l-0.50663,1.47677h-1.58457l2.55471,-7.1575h1.73548l2.52237,7.1575z" data-paper-data="{&quot;glyphName&quot;:&quot;A&quot;,&quot;glyphIndex&quot;:7,&quot;word&quot;:1}"></path><path d="M272.51324,261.88094c0.65395,0 1.12824,-0.20301 1.42288,-0.60903c0.29464,-0.40602 0.44195,-1.01506 0.44195,-1.8271c0,-0.40243 -0.03593,-0.74737 -0.10779,-1.03482c-0.07186,-0.28745 -0.18864,-0.5228 -0.35033,-0.70605c-0.16169,-0.18325 -0.36829,-0.31619 -0.61981,-0.39884c-0.25152,-0.08264 -0.55693,-0.12396 -0.91625,-0.12396h-1.11027v4.6998zM269.8184,263.09901v-7.1575h2.7703c0.48148,0 0.92703,0.08085 1.33664,0.24254c0.40962,0.16169 0.75995,0.39345 1.05099,0.69527c0.29104,0.30182 0.51921,0.66832 0.68449,1.0995c0.16528,0.43117 0.24793,0.91984 0.24793,1.46599c0,0.54615 -0.07366,1.0438 -0.22098,1.49294c-0.14732,0.44914 -0.35752,0.8336 -0.63059,1.15339c-0.27308,0.31979 -0.60005,0.56771 -0.98092,0.74378c-0.38087,0.17606 -0.80127,0.26409 -1.26119,0.26409z" data-paper-data="{&quot;glyphName&quot;:&quot;D&quot;,&quot;glyphIndex&quot;:8,&quot;word&quot;:1}"></path><path d="M288.90689,262.06419c0.26589,0 0.51741,-0.04851 0.75456,-0.14552c0.23715,-0.09701 0.44375,-0.24433 0.61981,-0.44195c0.17606,-0.19762 0.3144,-0.45094 0.41501,-0.75995c0.10061,-0.30901 0.15091,-0.67551 0.15091,-1.0995c0,-0.84798 -0.16528,-1.49115 -0.49585,-1.92951c-0.33057,-0.43836 -0.81205,-0.65754 -1.44443,-0.65754c-0.63239,0 -1.11746,0.21918 -1.45521,0.65754c-0.33775,0.43836 -0.50663,1.08153 -0.50663,1.92951c0,0.84798 0.17067,1.46779 0.51202,1.85944c0.34135,0.39165 0.82462,0.58748 1.44982,0.58748zM288.90689,263.34693c-1.10668,0 -1.95645,-0.32338 -2.54932,-0.97014c-0.59287,-0.64676 -0.8893,-1.57738 -0.8893,-2.79186c0,-0.60364 0.07546,-1.14621 0.22637,-1.62768c0.15091,-0.48148 0.37368,-0.8893 0.66832,-1.22346c0.29464,-0.33416 0.65395,-0.58927 1.07794,-0.76533c0.42399,-0.17606 0.91265,-0.26409 1.46599,-0.26409c0.54615,0 1.03302,0.08803 1.4606,0.26409c0.42758,0.17606 0.7851,0.43297 1.07255,0.77072c0.28745,0.33775 0.50663,0.74917 0.65754,1.23424c0.15091,0.48507 0.22637,1.03302 0.22637,1.64385c0,1.23603 -0.29284,2.16665 -0.87852,2.79186c-0.58568,0.6252 -1.43186,0.9378 -2.53854,0.9378z" data-paper-data="{&quot;glyphName&quot;:&quot;O&quot;,&quot;glyphIndex&quot;:9,&quot;lastGlyphOfWord&quot;:true,&quot;word&quot;:1}"></path><path d="M313.44354,259.28311c0.43117,0 0.74198,-0.09881 0.93241,-0.29643c0.19044,-0.19762 0.28565,-0.45453 0.28565,-0.77072c0,-0.30182 -0.09522,-0.54975 -0.28565,-0.74378c-0.19044,-0.19403 -0.50124,-0.29104 -0.93241,-0.29104h-1.42288v2.10198zM310.52233,263.09901v-7.1575h3.15835c0.35213,0 0.66832,0.05929 0.94858,0.17786c0.28026,0.11857 0.521,0.28386 0.72222,0.49585c0.20121,0.21199 0.35572,0.45812 0.46351,0.73839c0.10779,0.28026 0.16169,0.58209 0.16169,0.90547c0,0.32338 -0.0539,0.62341 -0.16169,0.90008c-0.10779,0.27667 -0.2623,0.51382 -0.46351,0.71144c-0.20121,0.19762 -0.44195,0.35213 -0.72222,0.46351c-0.28026,0.11139 -0.59646,0.16708 -0.94858,0.16708h-1.66002v2.59783z" data-paper-data="{&quot;glyphName&quot;:&quot;P&quot;,&quot;glyphIndex&quot;:10,&quot;firstGlyphOfWord&quot;:true,&quot;word&quot;:2}"></path><path d="M328.46043,262.06419c0.26589,0 0.51741,-0.04851 0.75456,-0.14552c0.23715,-0.09701 0.44375,-0.24433 0.61981,-0.44195c0.17606,-0.19762 0.3144,-0.45094 0.41501,-0.75995c0.10061,-0.30901 0.15091,-0.67551 0.15091,-1.0995c0,-0.84798 -0.16528,-1.49115 -0.49585,-1.92951c-0.33057,-0.43836 -0.81205,-0.65754 -1.44443,-0.65754c-0.63239,0 -1.11746,0.21918 -1.45521,0.65754c-0.33775,0.43836 -0.50663,1.08153 -0.50663,1.92951c0,0.84798 0.17067,1.46779 0.51202,1.85944c0.34135,0.39165 0.82462,0.58748 1.44982,0.58748zM328.46043,263.34693c-1.10668,0 -1.95645,-0.32338 -2.54932,-0.97014c-0.59287,-0.64676 -0.8893,-1.57738 -0.8893,-2.79186c0,-0.60364 0.07546,-1.14621 0.22637,-1.62768c0.15091,-0.48148 0.37368,-0.8893 0.66832,-1.22346c0.29464,-0.33416 0.65395,-0.58927 1.07794,-0.76533c0.42399,-0.17606 0.91265,-0.26409 1.46599,-0.26409c0.54615,0 1.03302,0.08803 1.4606,0.26409c0.42758,0.17606 0.7851,0.43297 1.07255,0.77072c0.28745,0.33775 0.50663,0.74917 0.65754,1.23424c0.15091,0.48507 0.22637,1.03302 0.22637,1.64385c0,1.23603 -0.29284,2.16665 -0.87852,2.79186c-0.58568,0.6252 -1.43186,0.9378 -2.53854,0.9378z" data-paper-data="{&quot;glyphName&quot;:&quot;O&quot;,&quot;glyphIndex&quot;:11,&quot;word&quot;:2}"></path><path d="M342.96418,257.18114v1.90795h1.87561c0.40243,0 0.68629,-0.08983 0.85157,-0.26948c0.16528,-0.17966 0.24793,-0.40602 0.24793,-0.6791c0,-0.28026 -0.08085,-0.51022 -0.24254,-0.68988c-0.16169,-0.17966 -0.42938,-0.26948 -0.80306,-0.26948zM345.68058,263.09901v-1.84327c0,-0.34494 -0.07905,-0.59107 -0.23715,-0.73839c-0.1581,-0.14732 -0.45273,-0.22098 -0.88391,-0.22098h-1.59535v2.80263h-1.45521v-7.1575h3.63265c0.33057,0 0.63059,0.0521 0.90008,0.1563c0.26948,0.1042 0.50124,0.24793 0.69527,0.43117c0.19403,0.18325 0.34314,0.40243 0.44734,0.65754c0.1042,0.25511 0.1563,0.52999 0.1563,0.82462c0,0.38806 -0.09162,0.7312 -0.27487,1.02943c-0.18325,0.29823 -0.44734,0.50843 -0.79228,0.63059c0.31619,0.10061 0.54076,0.25511 0.67371,0.46351c0.13295,0.2084 0.19942,0.521 0.19942,0.9378v2.02652z" data-paper-data="{&quot;glyphName&quot;:&quot;R&quot;,&quot;glyphIndex&quot;:12,&quot;lastGlyphOfWord&quot;:true,&quot;word&quot;:2}"></path><path d="M364.86847,263.09901v-7.1575h1.49833v5.85319h3.54641v1.3043z" data-paper-data="{&quot;glyphName&quot;:&quot;L&quot;,&quot;glyphIndex&quot;:13,&quot;firstGlyphOfWord&quot;:true,&quot;word&quot;:3}"></path><path d="M376.97178,263.09901v-7.1575h1.49833v7.1575z" data-paper-data="{&quot;glyphName&quot;:&quot;I&quot;,&quot;glyphIndex&quot;:14,&quot;word&quot;:3}"></path><path d="M390.61086,263.09901l-3.06134,-4.8076v4.8076h-1.39054v-7.1575h1.58457l2.84575,4.60279v-4.60279h1.40132v7.1575z" data-paper-data="{&quot;glyphName&quot;:&quot;N&quot;,&quot;glyphIndex&quot;:15,&quot;word&quot;:3}"></path><path d="M406.94978,263.09901l-0.03234,-0.71144c-0.17247,0.30182 -0.44914,0.53717 -0.83001,0.70605c-0.38087,0.16888 -0.81923,0.25332 -1.31508,0.25332c-0.49585,0 -0.94319,-0.106 -1.34203,-0.31799c-0.39884,-0.21199 -0.74018,-0.49585 -1.02404,-0.85157c-0.28386,-0.35572 -0.50124,-0.76533 -0.65215,-1.22885c-0.15091,-0.46351 -0.22637,-0.94319 -0.22637,-1.43905c0,-0.5246 0.07546,-1.01865 0.22637,-1.48216c0.15091,-0.46351 0.37368,-0.86774 0.66832,-1.21268c0.29464,-0.34494 0.66113,-0.61622 1.0995,-0.81384c0.43836,-0.19762 0.94858,-0.29643 1.53067,-0.29643c0.42399,0 0.82103,0.06108 1.19112,0.18325c0.37009,0.12217 0.69347,0.29104 0.97014,0.50663c0.27667,0.21559 0.49944,0.4725 0.66832,0.77072c0.16888,0.29823 0.26769,0.627 0.29643,0.98631h-1.50911c-0.02156,-0.16528 -0.07905,-0.32158 -0.17247,-0.4689c-0.09342,-0.14732 -0.21199,-0.27487 -0.35572,-0.38267c-0.14372,-0.10779 -0.3108,-0.19403 -0.50124,-0.2587c-0.19044,-0.06468 -0.38626,-0.09701 -0.58748,-0.09701c-0.60364,0 -1.08692,0.22457 -1.44982,0.67371c-0.36291,0.44914 -0.54436,1.10129 -0.54436,1.95645c0,0.29464 0.03773,0.59107 0.11318,0.8893c0.07546,0.29823 0.19403,0.56771 0.35572,0.80845c0.16169,0.24074 0.36829,0.43656 0.61981,0.58748c0.25152,0.15091 0.54975,0.22637 0.89469,0.22637c0.24433,0 0.4725,-0.04312 0.68449,-0.12935c0.21199,-0.08623 0.39704,-0.20481 0.55514,-0.35572c0.1581,-0.15091 0.28206,-0.32518 0.37189,-0.5228c0.08983,-0.19762 0.13474,-0.40782 0.13474,-0.63059h-1.58457v-1.19651h2.98588v3.84823z" data-paper-data="{&quot;glyphName&quot;:&quot;G&quot;,&quot;glyphIndex&quot;:16,&quot;word&quot;:3}"></path><path d="M422.1674,255.94151h1.53067v4.77526c0,0.86954 -0.25511,1.52528 -0.76533,1.96723c-0.51022,0.44195 -1.23603,0.66293 -2.17743,0.66293c-0.86954,0 -1.55762,-0.2084 -2.06425,-0.6252c-0.50663,-0.4168 -0.75995,-1.05638 -0.75995,-1.91873v-4.86149h1.51989v4.72136c0,0.44555 0.11139,0.79767 0.33416,1.05638c0.22277,0.2587 0.53897,0.38806 0.94858,0.38806c0.95577,0 1.43366,-0.46351 1.43366,-1.39054z" data-paper-data="{&quot;glyphName&quot;:&quot;U&quot;,&quot;glyphIndex&quot;:17,&quot;word&quot;:3}"></path><path d="M435.37368,257.54763h-0.01078l-0.91625,2.84575h1.82171zM437.15228,263.09901l-0.45273,-1.47677h-2.64094l-0.50663,1.47677h-1.58457l2.55471,-7.1575h1.73548l2.52237,7.1575z" data-paper-data="{&quot;glyphName&quot;:&quot;A&quot;,&quot;glyphIndex&quot;:18,&quot;word&quot;:3}"></path><path d="M452.55021,263.09901l-0.03234,-0.71144c-0.17247,0.30182 -0.44914,0.53717 -0.83001,0.70605c-0.38087,0.16888 -0.81923,0.25332 -1.31508,0.25332c-0.49585,0 -0.94319,-0.106 -1.34203,-0.31799c-0.39884,-0.21199 -0.74018,-0.49585 -1.02404,-0.85157c-0.28386,-0.35572 -0.50124,-0.76533 -0.65215,-1.22885c-0.15091,-0.46351 -0.22637,-0.94319 -0.22637,-1.43905c0,-0.5246 0.07546,-1.01865 0.22637,-1.48216c0.15091,-0.46351 0.37368,-0.86774 0.66832,-1.21268c0.29464,-0.34494 0.66113,-0.61622 1.0995,-0.81384c0.43836,-0.19762 0.94858,-0.29643 1.53067,-0.29643c0.42399,0 0.82103,0.06108 1.19112,0.18325c0.37009,0.12217 0.69347,0.29104 0.97014,0.50663c0.27667,0.21559 0.49944,0.4725 0.66832,0.77072c0.16888,0.29823 0.26769,0.627 0.29643,0.98631h-1.50911c-0.02156,-0.16528 -0.07905,-0.32158 -0.17247,-0.4689c-0.09342,-0.14732 -0.21199,-0.27487 -0.35572,-0.38267c-0.14372,-0.10779 -0.3108,-0.19403 -0.50124,-0.2587c-0.19044,-0.06468 -0.38626,-0.09701 -0.58748,-0.09701c-0.60364,0 -1.08692,0.22457 -1.44982,0.67371c-0.36291,0.44914 -0.54436,1.10129 -0.54436,1.95645c0,0.29464 0.03773,0.59107 0.11318,0.8893c0.07546,0.29823 0.19403,0.56771 0.35572,0.80845c0.16169,0.24074 0.36829,0.43656 0.61981,0.58748c0.25152,0.15091 0.54975,0.22637 0.89469,0.22637c0.24433,0 0.4725,-0.04312 0.68449,-0.12935c0.21199,-0.08623 0.39704,-0.20481 0.55514,-0.35572c0.1581,-0.15091 0.28206,-0.32518 0.37189,-0.5228c0.08983,-0.19762 0.13474,-0.40782 0.13474,-0.63059h-1.58457v-1.19651h2.98588v3.84823z" data-paper-data="{&quot;glyphName&quot;:&quot;G&quot;,&quot;glyphIndex&quot;:19,&quot;word&quot;:3}"></path><path d="M463.40201,263.09901v-7.1575h5.26033v1.25041h-3.80512v1.53067h3.50329v1.26119h-3.50329v1.84327h3.97759v1.27196z" data-paper-data="{&quot;glyphName&quot;:&quot;E&quot;,&quot;glyphIndex&quot;:20,&quot;word&quot;:3}"></path><path d="M483.59868,263.09901v-4.90461l-1.33664,4.90461h-1.48755l-1.32586,-4.88305v4.88305h-1.39054v-7.1575h2.19899l1.29352,5.24955l1.29352,-5.24955h2.15587v7.1575z" data-paper-data="{&quot;glyphName&quot;:&quot;M&quot;,&quot;glyphIndex&quot;:21,&quot;lastGlyphOfWord&quot;:true,&quot;word&quot;:3}"></path></g><g data-paper-data="{&quot;isPrimaryText&quot;:true}" fill="#a2aaad" fill-rule="nonzero"><path d="M171.15247,211.26254v-4.26376h-15.26888v40.33289h15.26888v-4.26376h-10.65941v-15.3265h8.93085v-4.26376h-8.93085v-12.2151z" data-paper-data="{&quot;glyphName&quot;:&quot;E&quot;,&quot;glyphIndex&quot;:0,&quot;firstGlyphOfWord&quot;:true,&quot;word&quot;:1}"></path><path d="M176.33813,247.33167h9.33418c6.28041,0 8.70038,-2.47759 8.70038,-8.70038v-22.93213c0,-6.22279 -2.41997,-8.70038 -8.70038,-8.70038h-9.33418zM189.76322,215.35345v23.62355c0,3.28425 -0.80666,4.09091 -4.09091,4.09091h-4.72471v-31.80537h4.72471c3.28425,0 4.09091,0.80666 4.09091,4.09091z" data-paper-data="{&quot;glyphName&quot;:&quot;D&quot;,&quot;glyphIndex&quot;:1,&quot;word&quot;:1}"></path><path d="M203.87973,206.99878h-4.60947v30.19205c0,5.58899 2.99616,10.48655 9.56466,10.48655c6.16517,0 9.56466,-4.49424 9.56466,-10.48655v-30.19205h-4.60947v30.19205c0,3.11139 -0.80666,6.22279 -4.95518,6.22279c-3.91805,0 -4.95518,-2.76568 -4.95518,-6.22279z" data-paper-data="{&quot;glyphName&quot;:&quot;U&quot;,&quot;glyphIndex&quot;:2,&quot;word&quot;:1}"></path><path d="M234.76321,206.99878h-4.72471l-7.31754,40.33289h4.66709l1.26761,-7.49039h7.49039l1.26761,7.49039h4.66709zM232.40085,218.52246l2.99616,17.05505h-5.99232z" data-paper-data="{&quot;glyphName&quot;:&quot;A&quot;,&quot;glyphIndex&quot;:3,&quot;word&quot;:1}"></path><path d="M251.29969,230.67995h4.14853c3.28425,0 4.09091,0.80666 4.09091,4.09091v1.32522c0,6.68374 0.17286,9.91037 0.97951,11.23559h4.60947c-0.80666,-1.26761 -0.97951,-3.97567 -0.97951,-11.23559v-1.90141c0,-2.8233 -0.46095,-4.66709 -2.01664,-6.10755c1.09475,-1.26761 2.01664,-2.13188 2.01664,-4.83995v-7.54801c0,-6.22279 -2.41997,-8.70038 -8.70038,-8.70038h-8.758v40.33289h4.60947zM251.29969,211.26254h4.14853c3.28425,0 4.09091,0.80666 4.09091,4.09091v7.02945c0,3.22663 -0.80666,4.03329 -4.09091,4.03329h-4.14853z" data-paper-data="{&quot;glyphName&quot;:&quot;R&quot;,&quot;glyphIndex&quot;:4,&quot;word&quot;:1}"></path><path d="M269.33426,247.33167h9.33418c6.28041,0 8.70038,-2.47759 8.70038,-8.70038v-22.93213c0,-6.22279 -2.41997,-8.70038 -8.70038,-8.70038h-9.33418zM282.75935,215.35345v23.62355c0,3.28425 -0.80666,4.09091 -4.09091,4.09091h-4.72471v-31.80537h4.72471c3.28425,0 4.09091,0.80666 4.09091,4.09091z" data-paper-data="{&quot;glyphName&quot;:&quot;D&quot;,&quot;glyphIndex&quot;:5,&quot;word&quot;:1}"></path><path d="M311.10761,217.13962c0,-5.99232 -3.39949,-10.48655 -9.56466,-10.48655c-6.5685,0 -9.56466,4.89757 -9.56466,10.48655v20.05121c0,5.58899 2.99616,10.48655 9.56466,10.48655c6.16517,0 9.56466,-4.49424 9.56466,-10.48655zM296.58777,217.13962c0,-3.45711 1.03713,-6.22279 4.95518,-6.22279c4.14853,0 4.95518,3.11139 4.95518,6.22279v20.05121c0,3.11139 -0.80666,6.22279 -4.95518,6.22279c-3.91805,0 -4.95518,-2.76568 -4.95518,-6.22279z" data-paper-data="{&quot;glyphName&quot;:&quot;O&quot;,&quot;glyphIndex&quot;:6,&quot;lastGlyphOfWord&quot;:true,&quot;word&quot;:1}"></path><path d="M338.70683,206.99878h-4.72471l-7.31754,40.33289h4.66709l1.26761,-7.49039h7.49039l1.26761,7.49039h4.66709zM336.34448,218.52246l2.99616,17.05505h-5.99232z" data-paper-data="{&quot;glyphName&quot;:&quot;A&quot;,&quot;glyphIndex&quot;:7,&quot;firstGlyphOfWord&quot;:true,&quot;word&quot;:2}"></path><path d="M354.95523,206.99878h-4.60947v30.19205c0,5.58899 2.99616,10.48655 9.56466,10.48655c6.16517,0 9.56466,-4.49424 9.56466,-10.48655v-30.19205h-4.60947v30.19205c0,3.11139 -0.80666,6.22279 -4.95518,6.22279c-3.91805,0 -4.95518,-2.76568 -4.95518,-6.22279z" data-paper-data="{&quot;glyphName&quot;:&quot;U&quot;,&quot;glyphIndex&quot;:8,&quot;word&quot;:2}"></path><path d="M386.01156,226.93475v4.26376h2.88092v5.99232c0,2.59283 -0.57618,4.26376 -1.72855,5.24328c-1.09475,0.92189 -2.36236,0.97951 -3.22663,0.97951c-0.86428,0 -2.13188,-0.05762 -3.22663,-0.97951c-1.15237,-0.97951 -1.72855,-2.65045 -1.72855,-5.24328v-20.05121c0,-2.59283 0.57618,-4.26376 1.72855,-5.24328c1.09475,-0.92189 2.36236,-0.97951 3.22663,-0.97951c0.86428,0 2.13188,0.05762 3.22663,0.97951c1.15237,0.97951 1.72855,2.65045 1.72855,5.24328h4.60947c0,-4.55186 -1.78617,-7.08707 -3.34187,-8.35467c-1.44046,-1.26761 -3.39949,-2.13188 -6.22279,-2.13188c-2.8233,0 -4.78233,0.86428 -6.28041,2.13188c-1.49808,1.26761 -3.28425,3.80282 -3.28425,8.35467v20.05121c0,4.55186 1.78617,7.08707 3.28425,8.35467c1.49808,1.26761 3.45711,2.13188 6.28041,2.13188c2.8233,0 4.78233,-0.86428 6.22279,-2.13188c1.5557,-1.26761 3.34187,-3.80282 3.34187,-8.35467v-10.25608z" data-paper-data="{&quot;glyphName&quot;:&quot;G&quot;,&quot;glyphIndex&quot;:9,&quot;word&quot;:2}"></path><path d="M403.00899,206.99878h-4.60947v30.19205c0,5.58899 2.99616,10.48655 9.56466,10.48655c6.16517,0 9.56466,-4.49424 9.56466,-10.48655v-30.19205h-4.60947v30.19205c0,3.11139 -0.80666,6.22279 -4.95518,6.22279c-3.91805,0 -4.95518,-2.76568 -4.95518,-6.22279z" data-paper-data="{&quot;glyphName&quot;:&quot;U&quot;,&quot;glyphIndex&quot;:10,&quot;word&quot;:2}"></path><path d="M437.69528,208.84257c-1.49808,-1.32522 -3.45711,-2.1895 -6.28041,-2.1895c-2.1895,0 -9.56466,0.74904 -9.56466,10.14084c0,1.32522 0,5.30089 4.20614,8.58514c6.51088,5.12804 10.3137,6.91421 10.3137,11.23559c0,4.32138 -1.84379,6.79897 -4.95518,6.79897c-1.78617,0 -4.95518,-1.26761 -4.95518,-6.22279h-4.60947c0.11524,8.29705 5.30089,10.48655 9.56466,10.48655c2.24712,0 9.56466,-0.80666 9.56466,-11.06274c0,-6.5685 -5.24328,-9.33418 -12.04225,-14.86555c-2.47759,-1.95903 -2.47759,-3.91805 -2.47759,-4.95518c0,-5.35851 3.16901,-5.87708 4.95518,-5.87708c1.78617,0 4.95518,1.26761 4.95518,6.22279h4.60947c-0.05762,-4.49424 -1.78617,-7.02945 -3.28425,-8.29705z" data-paper-data="{&quot;glyphName&quot;:&quot;S&quot;,&quot;glyphIndex&quot;:11,&quot;word&quot;:2}"></path><path d="M462.70167,206.99878h-19.12932v4.26376h7.25992v36.06913h4.60947v-36.06913h7.25992z" data-paper-data="{&quot;glyphName&quot;:&quot;T&quot;,&quot;glyphIndex&quot;:12,&quot;word&quot;:2}"></path><path d="M485,217.13962c0,-5.99232 -3.39949,-10.48655 -9.56466,-10.48655c-6.5685,0 -9.56466,4.89757 -9.56466,10.48655v20.05121c0,5.58899 2.99616,10.48655 9.56466,10.48655c6.16517,0 9.56466,-4.49424 9.56466,-10.48655zM470.48016,217.13962c0,-3.45711 1.03713,-6.22279 4.95518,-6.22279c4.14853,0 4.95518,3.11139 4.95518,6.22279v20.05121c0,3.11139 -0.80666,6.22279 -4.95518,6.22279c-3.91805,0 -4.95518,-2.76568 -4.95518,-6.22279z" data-paper-data="{&quot;glyphName&quot;:&quot;O&quot;,&quot;glyphIndex&quot;:13,&quot;lastGlyphOfWord&quot;:true,&quot;word&quot;:2}"></path></g><g data-paper-data="{&quot;fillRule&quot;:&quot;nonzero&quot;,&quot;fillRuleOriginal&quot;:&quot;nonzero&quot;,&quot;isIcon&quot;:true,&quot;iconStyle&quot;:&quot;standalone&quot;,&quot;selectedEffects&quot;:{&quot;container&quot;:&quot;&quot;,&quot;transformation&quot;:&quot;&quot;,&quot;pattern&quot;:&quot;&quot;},&quot;bounds&quot;:{&quot;x&quot;:65,&quot;y&quot;:195.50327535970754,&quot;width&quot;:62.463635554651475,&quot;height&quot;:78.99353911059396},&quot;iconType&quot;:&quot;icon&quot;,&quot;rawIconId&quot;:&quot;771d5b14-4909-48b6-8c95-c6ea38c6ed34&quot;,&quot;isDetailed&quot;:false,&quot;suitableAsStandaloneIcon&quot;:true}" fill-rule="evenodd"><g data-paper-data="{&quot;isPathIcon&quot;:true}"><path d="M100.20479,195.50328l2.78198,10.96694h-6.35776l-0.95369,-4.52997h-0.2384c-0.1589,1.19199 -4.45027,21.05988 -6.51646,29.96083h-6.27816l8.82115,-36.39779z" fill="#a2aaad"></path><path d="M102.19178,232.69506c0,-0.079 1.35099,5.40397 1.35099,5.40397h-32.02621v22.09287h3.41718l-1.35099,5.80097h-8.58275v-58.80766h22.88727l-1.35099,5.88097h-15.01971v19.54989h30.67522z" fill="#101820"></path><path d="M93.84753,213.06617l1.27149,-5.88097h31.94661v5.88097z" fill="#a2aaad"></path><path d="M104.81477,213.78117l11.84093,45.61573c-0.08,0.08 -6.43696,0.08 -6.91396,0.08c0,0 -9.53694,-37.50978 -11.44393,-45.69573z" fill="#a2aaad"></path><path d="M111.80773,238.09903l-1.35099,-5.48297h9.37695v5.48297z" fill="#a2aaad"></path><path d="M72.23176,274.49681l8.74165,-35.68179h6.27816c-2.30469,10.17194 -5.00667,21.13888 -8.42385,35.68179z" fill="#a2aaad"></path><path d="M81.6092,265.99286l1.35099,-5.80097h44.50344v5.80097z" fill="#a2aaad"></path><path d="M120.31068,274.49681l-2.06599,-7.78795h-7.15196l1.98699,7.78795z" fill="#a2aaad"></path></g></g></g></g></svg>